{"title":"Transporter.3.2008.R5.XviD-ZEKTORM","uid":4581632,"size":734853113,"categoryP":"video","categoryS":"movies","magnet":"?xt=urn:btih:f7c1ba893e33d7747d2061314f40aeaf2863050a&amp;dn=Transporter.3.2008.R5.XviD-ZEKTORM&amp;tr=udp%3A%2F%2Ftracker.openbittorrent.com%3A80&amp;tr=udp%3A%2F%2Fopen.demonii.com%3A1337&amp;tr=udp%3A%2F%2Ftracker.coppersurfer.tk%3A6969&amp;tr=udp%3A%2F%2Fexodus.desync.com%3A6969","seeders":1,"leechers":0,"uploader":"blowley","files":6,"time":1229449939,"description":"Title                            : Transporter 3 \nYear                             : 2008\nGenre                            : Action\niMDB Rate                        : User Rating: 6.4/10   4,874 votes   \niMDB URL                         : http://www.imdb.com/title/tt1129442/\n\nComplete name                    : Transporter.3.2008.DVDRIP.XviD-ZEKTORM.avi\nFormat                           : AVI\nFile size                        : 701 MiB\nDuration                         : 1h 39mn\nOverall bit rate                 : 985 Kbps\nSubtitles                        : English, Spanish, Portuguese\nSource                           : DVD9 PAL R5\n\nVideo\nFormat                           : MPEG-4 Visual\nFormat profile                   : Streaming Video@L1\nCodec ID                         : DX50\nCodec ID/Hint                    : DivX 5\nDuration                         : 1h 39mn\nBit rate                         : 866 Kbps\nWidth                            : 720 pixels\nHeight                           : 304 pixels\nDisplay aspect ratio             : 2.35\nFrame rate                       : 25.000 fps\nResolution                       : 24 bits\nColorimetry                      : 4:2:0\nScan type                        : Progressive\nBits/(Pixel*Frame)               : 0.158\nStream size                      : 616 MiB (88%)\nWriting library                  : XviD 1.2.0\n\nAudio\nFormat                           : MPEG Audio\nFormat version                   : Version 1\nFormat profile                   : Layer 3\nCodec ID                         : 55\nCodec ID/Hint                    : MP3\nDuration                         : 1h 39mn\nBit rate mode                    : Constant\nBit rate                         : 112 Kbps\nMinimum bit rate                 : 112 Kbps\nChannel(s)                       : 2 channels\nSampling rate                    : 44.1 KHz\nResolution                       : 16 bits\nStream size                      : 79.7 MiB (11%)\nWriting library                  : LAME3.97 \nEncoding settings                : CBR\n","torrent":{"xt":"urn:btih:f7c1ba893e33d7747d2061314f40aeaf2863050a","amp;dn":"Transporter.3.2008.R5.XviD-ZEKTORM","amp;tr":["udp%3A%2F%2Ftracker.openbittorrent.com%3A80","udp%3A%2F%2Fopen.demonii.com%3A1337","udp%3A%2F%2Ftracker.coppersurfer.tk%3A6969","udp%3A%2F%2Fexodus.desync.com%3A6969"],"infoHash":"f7c1ba893e33d7747d2061314f40aeaf2863050a","infoHashBuffer":{"type":"Buffer","data":[247,193,186,137,62,51,215,116,125,32,97,49,79,64,174,175,40,99,5,10]},"announce":[],"urlList":[]}}